<svg xmlns="http://www.w3.org/2000/svg" xmlns:xlink="http://www.w3.org/1999/xlink" width="490.76" height="107.332" viewBox="57.061 56.236 368.07 80.499">
    <defs>
        <path id="P" d="M3.815-2.587c.028-.105.028-.119.028-.147 0-.153-.112-.209-.217-.209-.23 0-.3.237-.306.258a.772.772 0 0 0-.684-.39C1.786-3.075.9-2.092.9-1.074.9-.328 1.374.07 1.89.07c.446 0 .816-.328.955-.474.091.334.419.474.67.474.216 0 .397-.105.55-.356.168-.272.266-.69.266-.711 0-.09-.09-.09-.147-.09-.125 0-.132.013-.174.187-.098.363-.216.774-.474.774-.196 0-.223-.209-.223-.327s0-.133.041-.293l.46-1.841ZM2.887-.948c-.056.216-.209.383-.37.537-.285.25-.502.285-.606.285-.321 0-.481-.3-.481-.662 0-.293.174-1.06.37-1.437.222-.411.557-.655.836-.655.474 0 .565.607.565.676 0 .021-.007.05-.02.098L2.886-.948Z"/>
        <path id="Q" d="M1.862-1.297c.035-.154.077-.3.112-.453a1.8 1.8 0 0 1 .425-.816.832.832 0 0 1 .649-.314c.076 0 .313.007.474.118a.345.345 0 0 0-.21.314c0 .195.154.237.245.237.132 0 .348-.097.348-.383 0-.356-.432-.481-.843-.481-.189 0-.565.013-.963.474-.111-.384-.474-.474-.67-.474-.3 0-.453.195-.557.37a2.44 2.44 0 0 0-.258.697c0 .09.09.09.146.09.126 0 .133-.007.181-.202.119-.481.252-.76.468-.76s.216.25.216.335c0 .132-.09.488-.147.732l-.195.753c-.02.105-.09.37-.118.474-.035.154-.098.398-.098.447 0 .153.112.209.216.209a.313.313 0 0 0 .272-.168c.021-.048.084-.3.119-.446l.188-.753Z"/>
        <path id="R" d="M2.992-2.594c-.035.014-.216.111-.216.293 0 .09.048.209.223.209.083 0 .307-.042.307-.377 0-.446-.475-.606-.88-.606-.996 0-1.226.753-1.226 1.025 0 .565.55.67.808.718.328.063.719.132.719.488 0 .188-.175.718-1.011.718-.217 0-.621-.041-.768-.341a.358.358 0 0 0 .286-.342c0-.132-.097-.23-.244-.23-.188 0-.362.14-.362.432 0 .419.432.677 1.074.677 1.192 0 1.464-.844 1.464-1.158 0-.21-.09-.404-.258-.55-.202-.168-.376-.203-.753-.273-.21-.042-.516-.097-.516-.383 0-.126.118-.586.78-.586.161 0 .461.035.573.286Z"/>
        <path id="O" d="M3.891-2.538c0-.524-.279-.544-.327-.544-.182 0-.363.18-.363.355 0 .098.056.147.09.189.14.139.203.32.203.523 0 .279-.384 1.89-1.193 1.89-.265 0-.537-.126-.537-.607 0-.384.224-.956.419-1.45.063-.175.063-.245.063-.308 0-.348-.28-.585-.621-.585-.69 0-1.011.948-1.011 1.067 0 .09.09.09.146.09.084 0 .126 0 .147-.09.216-.76.53-.872.697-.872.119 0 .174.077.174.23 0 .16-.048.272-.174.607-.328.85-.328 1.06-.328 1.22 0 .74.593.893 1.004.893 1.165 0 1.611-2.106 1.611-2.608Z"/>
        <path id="J" d="M3.547-5.748c-.08-.17-.14-.21-.23-.21-.129 0-.159.07-.219.21L.618-.18c-.06.13-.07.15-.07.199 0 .11.09.2.2.2C.816.22.896.2.975.01l2.342-5.28L5.658.01c.09.21.19.21.23.21a.2.2 0 0 0 .2-.2c0-.02 0-.04-.06-.16L3.546-5.747Z"/>
        <path id="E" d="M1.156-6.097v-.817H.329v.827h.249l-.25 1.245h.41l.418-1.255Zm1.932 0v-.817h-.826v.827h.249l-.25 1.245h.409l.418-1.255Z"/>
        <path id="D" d="m3.676-3.646 2.401-3.268h-.956l-1.873 2.6-1.933-2.6H.28l2.54 3.268L.14 0h.957l2.152-3.049L5.46 0h1.036l-2.82-3.646Z"/>
        <path id="C" d="M2.71-6.914H2.3L1.883-5.66v.817h.827v-.827h-.25l.25-1.245Zm1.933 0h-.409L3.816-5.66v.817h.827v-.827h-.25l.25-1.245Z"/>
        <path id="B" d="M3.298 2.391c0-.03 0-.05-.17-.22C1.883.918 1.564-.965 1.564-2.49c0-1.733.379-3.467 1.604-4.712.13-.12.13-.14.13-.17 0-.07-.04-.099-.1-.099-.1 0-.996.677-1.584 1.943C1.106-4.433.986-3.328.986-2.491c0 .777.11 1.983.658 3.109.598 1.225 1.454 1.873 1.554 1.873.06 0 .1-.03.1-.1Z"/>
        <path id="F" d="M2.88-2.49c0-.778-.11-1.983-.658-3.109C1.624-6.824.767-7.472.667-7.472c-.06 0-.1.04-.1.1 0 .03 0 .05.19.229.976.986 1.544 2.57 1.544 4.652 0 1.704-.368 3.457-1.604 4.713-.13.12-.13.14-.13.169 0 .06.04.1.1.1.1 0 .997-.678 1.585-1.943.508-1.096.627-2.202.627-3.039Z"/>
        <path id="z" d="M6.844-3.258c.15 0 .34 0 .34-.199s-.19-.2-.33-.2H.887c-.14 0-.33 0-.33.2s.19.2.34.2h5.947Zm.01 1.933c.14 0 .33 0 .33-.2s-.19-.199-.34-.199H.897c-.15 0-.34 0-.34.2s.19.199.33.199h5.967Z"/>
        <path id="T" d="M5.798-6.775H.328v.31h.24c.767 0 .787.109.787.467v5.22c0 .36-.02.47-.787.47h-.24V0c.35-.03 1.127-.03 1.515-.03.409 0 1.315 0 1.674.03v-.309h-.329c-.946 0-.946-.13-.946-.478v-2.45h.856c.957 0 1.056.318 1.056 1.165h.25v-2.64h-.25c0 .837-.1 1.165-1.056 1.165h-.856v-2.52c0-.329.02-.399.488-.399h1.195c1.495 0 1.744.558 1.903 1.933h.25l-.28-2.242Z"/>
        <path id="S" d="M9.056-5.828c.18-.568.608-.668.996-.668v-.308c-.299.02-.607.03-.906.03-.29 0-.927-.02-1.186-.03v.308c.668.01.867.34.867.528 0 .06-.03.14-.05.2L7.283-1.166 5.689-6.047c-.01-.04-.03-.1-.03-.15 0-.299.578-.299.837-.299v-.308c-.359.03-1.036.03-1.415.03s-.807-.02-1.215-.03v.308c.567 0 .777 0 .896.359l.22.697-1.385 4.274-1.604-4.901a.583.583 0 0 1-.02-.13c0-.299.577-.299.836-.299v-.308c-.358.03-1.036.03-1.414.03s-.807-.02-1.216-.03v.308c.748 0 .787.05.907.419L3.078.03c.03.09.06.19.19.19.14 0 .16-.07.199-.2l1.644-5.061L6.765.029c.03.09.06.19.189.19.14 0 .16-.07.2-.2l1.902-5.847Z"/>
        <path id="L" d="M2.54 2.49v-.398h-.966v-9.165h.966v-.399H1.176v9.963H2.54Z"/>
        <path id="N" d="M1.584-7.472H.22v.399h.967v9.165H.219v.399h1.365v-9.963Z"/>
        <path id="t" d="M6.804-2.341c.01-.02.04-.11.04-.12 0-.11-.12-.11-.15-.11-.109 0-.119.01-.208.24C5.908-.956 5.559-.31 3.976-.31H2.76c-.31 0-.31-.03-.31-.1 0-.06.03-.159.04-.219l.688-2.74h.867c.677 0 .747.16.747.429 0 .07-.01.22-.09.508 0 .02-.02.08-.02.11 0 .12.1.12.16.12.11 0 .14-.02.18-.2l.547-2.192c.01-.03.03-.11.03-.13 0-.119-.12-.119-.16-.119-.129 0-.129.03-.189.24-.189.707-.378.926-1.185.926h-.807l.608-2.451c.08-.329.149-.339.478-.339h1.245c1.076 0 1.325.3 1.325 1.006 0 .27-.02.399-.05.638-.01.05-.02.14-.02.17 0 .119.11.119.15.119.14 0 .15-.04.17-.22l.228-1.763c.03-.259-.03-.259-.239-.259H2.501c-.17 0-.27 0-.27.18 0 .13.07.13.27.13.577 0 .577.079.577.169 0 .01 0 .08-.04.229L1.705-.727c-.08.338-.14.418-.817.418-.16 0-.27 0-.27.19 0 .119.09.119.25.119h4.772c.2 0 .21-.01.279-.16l.886-2.181Z"/>
        <path id="I" d="M3.856-6.087c.08-.319.139-.409.826-.409.21 0 .31 0 .31-.189 0-.12-.1-.12-.14-.12-.399 0-.817.03-1.226.03s-.836-.03-1.245-.03c-.07 0-.19 0-.19.18 0 .13.07.13.27.13.339 0 .627 0 .627.169 0 .03-.02.16-.03.189L1.705-.717c-.08.328-.17.408-.837.408-.21 0-.3 0-.3.18 0 .11.07.129.14.129.399 0 .817-.03 1.226-.03S2.77 0 3.168 0c.07 0 .2 0 .2-.19 0-.119-.08-.119-.28-.119-.617 0-.617-.07-.617-.18 0-.01 0-.069.04-.218l1.345-5.38Z"/>
        <path id="q" d="M8.897-6.097c.08-.319.159-.399.787-.399.209 0 .299 0 .299-.179 0-.13-.08-.13-.25-.13H8.458c-.219 0-.249 0-.358.18L4.712-.996l-.558-5.59c-.02-.218-.04-.218-.279-.218H2.55c-.159 0-.269 0-.269.189 0 .12.08.12.27.12.308 0 .577 0 .577.169 0 .03 0 .05-.04.189l-1.275 5.13c-.14.559-.518.678-.966.698-.08 0-.19.01-.19.19 0 .09.06.119.13.119.299 0 .638-.03.946-.03.32 0 .668.03.977.03.06 0 .18 0 .18-.18 0-.119-.07-.129-.19-.129-.568-.02-.588-.279-.588-.428 0-.03 0-.09.04-.25l1.325-5.29h.01l.608 6.038c.02.17.02.239.169.239.13 0 .18-.07.24-.18l3.715-6.186h.01L6.824-.727c-.08.338-.14.418-.817.418-.159 0-.269 0-.269.19 0 .119.11.119.14.119.369 0 .757-.03 1.136-.03S7.8 0 8.169 0c.07 0 .19 0 .19-.18 0-.129-.07-.129-.27-.129-.577 0-.577-.08-.577-.17 0-.01 0-.079.04-.228l1.345-5.39Z"/>
        <path id="M" d="M7.333-5.818c.159-.638.717-.668 1.006-.678.03 0 .15-.01.15-.179 0-.08-.04-.13-.13-.13-.31 0-.638.03-.957.03s-.657-.03-.966-.03c-.05 0-.18 0-.18.19 0 .11.09.12.18.12.518.02.598.219.598.428 0 .09-.02.16-.04.239L5.898-1.455l-1.863-5.18c-.06-.16-.07-.17-.28-.17H2.512c-.16 0-.27 0-.27.19 0 .12.08.12.27.12.07 0 .607 0 .607.08 0 .009 0 .029-.03.129l-1.315 5.28c-.14.548-.508.677-.966.697-.08 0-.19.01-.19.19 0 .09.06.119.13.119.3 0 .638-.03.947-.03.318 0 .667.03.976.03.06 0 .18 0 .18-.18 0-.119-.07-.129-.19-.129-.568-.02-.588-.279-.588-.428 0-.03 0-.09.04-.25l1.285-5.13L5.54-.17c.05.15.06.169.2.169.11 0 .149-.01.199-.2l1.395-5.618Z"/>
        <path id="G" d="M6.276-6.785c.01-.04.02-.1.02-.139 0-.02-.01-.1-.11-.1-.049 0-.059.01-.149.12l-.448.558c-.389-.668-1.096-.678-1.295-.678-1.226 0-2.311 1.226-2.311 2.371 0 .519.219 1.047.797 1.316.06.03.279.09.428.129l.488.14c.518.149.598.179.767.358.11.14.22.359.22.717 0 .907-.778 1.903-1.664 1.903-.748 0-1.495-.358-1.495-1.394 0-.23.05-.499.08-.608 0-.02.01-.04.01-.06 0-.11-.09-.11-.15-.11-.119 0-.139.02-.179.17L.767-.01c-.02.07-.03.1-.03.13 0 .06.05.1.11.1.07 0 .08-.02.16-.12.109-.12.368-.439.467-.568C1.844.07 2.481.219 3 .219c1.255 0 2.36-1.335 2.36-2.59 0-.289-.069-.697-.328-1.016-.249-.31-.368-.339-1.315-.618-.19-.05-.498-.14-.548-.16-.339-.149-.508-.468-.508-.876 0-.817.767-1.704 1.614-1.704.936 0 1.215.678 1.215 1.415 0 .259-.01.329-.05.548l-.01.14c0 .099.1.099.15.099.11 0 .14-.01.18-.18l.517-2.062Z"/>
        <path id="x" d="M10.002-5.679c.34-.617.578-.777 1.057-.817.1-.01.139-.1.139-.199 0-.01 0-.11-.12-.11-.229 0-.488.03-.727.03-.319 0-.667-.03-.986-.03-.06 0-.19 0-.19.19 0 .11.09.12.16.12.17.01.508.07.508.378 0 .12-.05.21-.11.319l-2.52 4.642-.22-4.901c-.01-.01-.01-.03-.01-.07 0-.17.06-.359.708-.369.08 0 .2 0 .2-.199 0-.09-.08-.11-.14-.11-.369 0-.757.03-1.126.03-.319 0-.667-.03-.976-.03-.04 0-.18 0-.18.19 0 .12.11.12.21.12.418 0 .458.06.478.209.01.04.04.657.04.667 0 .08 0 .1-.06.2L3.816-1.157l-.22-4.871c-.01-.21-.02-.459.648-.469.14 0 .25 0 .25-.189 0-.12-.11-.12-.14-.12-.369 0-.757.03-1.126.03-.319 0-.668-.03-.976-.03-.04 0-.18 0-.18.19 0 .12.1.12.24.12.448 0 .448.08.458.318L3.049-.03c.01.21.03.25.179.25s.18-.05.259-.2l2.74-5.011.219 4.961c.01.19.01.25.18.25.079 0 .159 0 .258-.18l3.118-5.719Z"/>
        <path id="p" d="m4.902-3.816 1.624-1.863.12-.1c.238-.258.607-.667 1.364-.717.11-.01.21-.01.21-.189 0-.09-.07-.12-.13-.12-.28 0-.578.03-.867.03-.339 0-.707-.03-1.036-.03-.06 0-.18 0-.18.19 0 .11.09.12.12.12.07.01.359.03.359.298 0 .08-.03.19-.21.399L4.802-4.105l-.727-1.982c0-.01-.04-.11-.04-.12 0-.07.2-.259.568-.289.05 0 .16-.01.16-.179 0-.11-.07-.13-.14-.13-.379 0-.777.03-1.166.03-.339 0-.687-.03-1.016-.03-.06 0-.19 0-.19.19 0 .12.1.12.24.12.538 0 .577.099.657.318l1.026 2.78-2.072 2.36C1.514-.358.956-.328.628-.308c-.11.01-.12.18-.12.19 0 .04.02.119.12.119.279 0 .587-.03.876-.03.34 0 .698.03 1.027.03.05 0 .189 0 .189-.2 0-.099-.11-.109-.13-.109-.299-.03-.348-.2-.348-.299 0-.04.01-.14.08-.239.02-.02.03-.04.04-.06l.01-.02 1.912-2.181.877 2.38c.01.04.03.09.03.12 0 .1-.21.28-.568.3-.07.01-.16.039-.16.188 0 .12.12.12.15.12.378 0 .777-.03 1.155-.03.34 0 .698.03 1.027.03.06 0 .179 0 .179-.18 0-.129-.08-.129-.24-.129-.537 0-.577-.11-.647-.299L4.902-3.816Z"/>
        <path id="j" d="M3.477-.588c.11.488.478.698.827.698.368 0 .578-.25.727-.558.18-.379.299-.957.299-.977 0-.1-.08-.1-.15-.1-.119 0-.129.01-.189.23-.14.558-.328 1.185-.667 1.185-.26 0-.26-.269-.26-.408 0-.07 0-.23.07-.508l.678-2.71c.04-.14.04-.16.04-.21 0-.208-.17-.258-.27-.258-.318 0-.388.338-.398.388-.189-.428-.508-.587-.827-.587-1.105 0-2.281 1.514-2.281 2.968 0 .847.458 1.545 1.205 1.545.36 0 .797-.21 1.196-.698Zm.538-2.53-.468 1.883C3.467-.917 2.849-.11 2.3-.11c-.468 0-.548-.587-.548-.886 0-.498.31-1.664.489-2.082.249-.608.707-1.106 1.115-1.106.439 0 .688.518.688.936 0 .02-.01.07-.03.13Z"/>
        <path id="i" d="M4.334-3.756c-.498.06-.498.468-.498.488 0 .16.11.32.338.32.27 0 .508-.22.508-.599 0-.488-.428-.856-1.066-.856-1.235 0-2.52 1.414-2.52 2.869C1.096-.548 1.684.11 2.56.11c1.276 0 2.103-.997 2.103-1.146 0-.05-.08-.16-.16-.16-.04 0-.05.01-.13.11-.737.937-1.623.976-1.793.976-.538 0-.787-.448-.787-1.026 0-.528.27-1.574.528-2.052.359-.648.857-.996 1.305-.996.11 0 .558.02.708.428Z"/>
        <path id="l" d="M2.381-2.301c.299 0 .966-.03 1.445-.22.787-.318.787-.966.787-1.036 0-.458-.369-.846-1.007-.846-1.046 0-2.47 1.006-2.47 2.77C1.136-.738 1.614.11 2.56.11c1.276 0 2.103-.997 2.103-1.146 0-.05-.08-.16-.16-.16-.04 0-.05.01-.13.11-.737.937-1.623.976-1.793.976-.647 0-.757-.707-.757-1.095 0-.38.1-.827.17-1.096h.388Zm-.329-.22c.429-1.633 1.455-1.663 1.554-1.663.399 0 .628.269.628.607 0 1.056-1.644 1.056-1.972 1.056h-.21Z"/>
        <path id="h" d="M3.298-1.425c0-.1-.08-.1-.15-.1-.13 0-.13.02-.17.17C2.9-1.066 2.63-.11 2.053-.11c-.08 0-.219-.01-.219-.279 0-.259.13-.587.26-.956l.637-1.704c.1-.288.12-.368.12-.557 0-.548-.38-.797-.748-.797C1.166-4.403.827-2.92.827-2.87c0 .1.1.1.15.1.129 0 .139-.02.179-.16.09-.329.348-1.255.926-1.255.11 0 .22.05.22.279 0 .239-.11.528-.18.717l-.299.827c-.13.329-.249.657-.368.986-.14.379-.18.488-.18.688 0 .388.24.797.757.797.937 0 1.266-1.495 1.266-1.535Zm-.05-4.782c0-.249-.2-.328-.339-.328-.21 0-.478.199-.478.478 0 .249.2.328.339.328.199 0 .478-.189.478-.478Z"/>
        <path id="v" d="M3.019-6.665c.01-.03.03-.11.03-.13 0-.09-.06-.12-.14-.12-.03 0-.13.01-.16.02l-.986.08c-.12.01-.229.02-.229.21 0 .11.1.11.24.11.478 0 .497.07.497.169 0 .03-.03.16-.03.17L.997-1.177c-.01.04-.06.24-.06.389 0 .528.36.897.837.897.379 0 .578-.27.708-.518.17-.35.309-.987.309-1.017 0-.1-.08-.1-.15-.1-.05 0-.11 0-.14.05l-.07.25C2.263-.528 2.073-.11 1.794-.11c-.259 0-.259-.269-.259-.408 0-.07 0-.22.06-.458l1.425-5.689Z"/>
        <path id="o" d="M2.291-1.743c.05-.22.11-.429.16-.648.13-.508.13-.518.299-.807.14-.24.587-.986 1.345-.986.438 0 .458.448.458.657 0 .618-.438 1.803-.578 2.202-.13.339-.16.428-.16.638 0 .438.28.797.758.797.926 0 1.265-1.485 1.265-1.535 0-.1-.08-.1-.15-.1-.129 0-.129.02-.169.17-.08.27-.348 1.245-.926 1.245-.21 0-.22-.149-.22-.289 0-.249.1-.508.18-.747.2-.528.608-1.644.608-2.221 0-.817-.548-1.036-1.036-1.036-.817 0-1.296.597-1.425.787-.07-.489-.409-.787-.837-.787-.359 0-.558.229-.717.528-.19.398-.32.986-.32 1.006 0 .1.1.1.15.1.13 0 .14-.01.19-.23.179-.697.368-1.185.677-1.185.26 0 .26.289.26.398 0 .16-.03.349-.07.508l-.748 2.99a.5.5 0 0 0-.03.139c0 .11.08.259.28.259.119 0 .288-.07.358-.26l.398-1.593Z"/>
        <path id="k" d="M5.071-2.77c0-.946-.588-1.633-1.455-1.633-1.235 0-2.52 1.414-2.52 2.869C1.096-.508 1.724.11 2.55.11c1.236 0 2.521-1.415 2.521-2.88ZM2.551-.11c-.39 0-.758-.308-.758-1.026 0-.498.26-1.604.578-2.142.369-.607.847-.906 1.235-.906.489 0 .768.438.768 1.026 0 .428-.22 1.454-.538 2.052-.29.548-.797.996-1.286.996Z"/>
        <path id="H" d="M.897 1.275c-.08.31-.16.339-.548.349-.09 0-.21 0-.21.19 0 .069.05.119.12.119.269 0 .558-.03.837-.03.319 0 .657.03.966.03.06 0 .19 0 .19-.19 0-.12-.1-.12-.24-.12-.508 0-.508-.059-.508-.158 0-.06.07-.32.11-.479l.359-1.454c.07.17.318.578.836.578 1.086 0 2.272-1.475 2.272-2.96 0-1.065-.598-1.553-1.196-1.553-.488 0-.916.358-1.205.697-.12-.578-.568-.697-.817-.697-.359 0-.558.229-.717.528-.19.398-.32.986-.32 1.006 0 .1.1.1.15.1.13 0 .14-.01.19-.23.179-.697.368-1.185.677-1.185.26 0 .26.289.26.398 0 .06 0 .22-.07.498L.896 1.275ZM2.62-3.059c.08-.338.698-1.125 1.246-1.125.448 0 .547.568.547.886 0 .419-.269 1.604-.557 2.242-.12.249-.548.946-1.056.946-.578 0-.678-.846-.678-.926 0-.03.01-.06.03-.14l.468-1.883Z"/>
        <path id="s" d="M2.46-1.963c.44.1.887.2.887.738 0 .318-.269 1.115-1.295 1.115-.219 0-.797-.05-.956-.557.508-.05.508-.469.508-.489 0-.189-.13-.318-.339-.318-.229 0-.508.169-.508.617 0 .608.578.967 1.285.967 1.495 0 1.873-1.216 1.873-1.674 0-.867-.777-1.046-1.185-1.136-.28-.06-.638-.14-.638-.568 0-.239.21-.916 1.006-.916.27 0 .638.1.748.488a.436.436 0 0 0-.399.408c0 .11.06.28.299.28.17 0 .428-.12.428-.549 0-.458-.408-.846-1.066-.846A1.512 1.512 0 0 0 1.534-2.93c0 .767.648.907.927.966Z"/>
        <path id="g" d="M2.59-3.985h.847c.17 0 .28 0 .28-.19 0-.119-.09-.119-.25-.119H2.67l.369-1.474c.04-.14.04-.16.04-.21 0-.209-.17-.259-.27-.259-.249 0-.348.21-.388.359l-.389 1.584h-.846c-.17 0-.28 0-.28.19 0 .119.09.119.25.119h.797l-.718 2.86c-.01.04-.05.198-.05.338 0 .498.33.897.847.897 1.007 0 1.515-1.485 1.515-1.535 0-.1-.08-.1-.15-.1-.12 0-.12.01-.199.19C3.018-.857 2.62-.11 2.052-.11c-.269 0-.269-.249-.269-.408 0-.07 0-.23.07-.508l.737-2.96Z"/>
        <path id="r" d="M5.11-3.895a.5.5 0 0 0 .03-.14c0-.11-.079-.259-.278-.259-.3 0-.369.289-.389.369l-.727 2.909c-.05.18-.05.2-.14.329-.189.279-.478.577-.916.577-.448 0-.538-.438-.538-.767 0-.607.329-1.504.578-2.182.08-.209.13-.348.13-.538 0-.498-.33-.806-.758-.806C1.176-4.403.827-2.93.827-2.87c0 .1.1.1.15.1.129 0 .139-.02.179-.16.08-.309.348-1.255.926-1.255.11 0 .22.03.22.289 0 .239-.1.508-.24.896-.259.698-.518 1.435-.518 1.953C1.544-.18 2.122.11 2.66.11c.528 0 .867-.3 1.106-.598.18.538.608.598.797.598.369 0 .578-.25.727-.558.18-.379.299-.957.299-.977 0-.1-.08-.1-.15-.1-.119 0-.129.01-.189.23-.14.558-.328 1.185-.667 1.185-.26 0-.26-.269-.26-.408 0-.07 0-.23.07-.508l.718-2.87Z"/>
        <path id="u" d="M4.912-3.746c0-.349-.12-.657-.409-.657-.229 0-.478.229-.478.458 0 .13.07.199.13.269.239.259.268.578.268.787 0 .279-.468 2.78-1.614 2.78-.538 0-.647-.499-.647-.827 0-.578.319-1.445.588-2.162.05-.16.11-.31.11-.499 0-.498-.33-.806-.758-.806C1.176-4.403.827-2.93.827-2.87c0 .1.1.1.15.1.129 0 .139-.02.179-.16.08-.309.348-1.255.926-1.255.11 0 .22.03.22.289 0 .239-.1.508-.24.896-.309.847-.508 1.445-.508 1.913C1.554-.179 2.192.11 2.78.11c1.673 0 2.132-3.597 2.132-3.856Z"/>
        <path id="n" d="M3.786-1.674c-.07.28-.08.488-.08.628 0 .11-.309.936-.837.936-.697 0-.697-.737-.697-.866 0-.538.259-1.276.568-2.092.07-.19.12-.34.12-.529 0-.498-.33-.806-.758-.806C1.176-4.403.827-2.93.827-2.87c0 .1.1.1.15.1.129 0 .139-.02.179-.16.08-.309.348-1.255.926-1.255.11 0 .22.03.22.289 0 .239-.1.508-.24.896-.498 1.355-.498 1.614-.498 1.883 0 .339.08.678.339.917.319.279.767.309.936.309.32 0 .668-.13.967-.638.15.369.548.638 1.135.638.598 0 1.017-.409 1.316-1.116.298-.678.687-2.212.687-2.74 0-.349-.12-.657-.409-.657-.229 0-.478.229-.478.458 0 .13.07.199.13.269.239.259.269.578.269.787 0 .398-.319 1.444-.488 1.853-.22.518-.538.926-.997.926-.498 0-.657-.408-.657-.826 0-.09.01-.33.12-.768l.418-1.673c.06-.22.16-.618.16-.658 0-.11-.08-.259-.28-.259-.289 0-.358.27-.378.349l-.568 2.271Z"/>
        <path id="m" d="M4.722-4.045c-.398.1-.398.468-.398.478 0 .13.09.32.348.32.18 0 .489-.14.489-.529 0-.508-.578-.627-.867-.627-.548 0-.877.488-.976.677-.22-.598-.708-.677-.957-.677-.996 0-1.534 1.305-1.534 1.534 0 .1.1.1.15.1.129 0 .129-.01.179-.17.269-.857.787-1.245 1.185-1.245.29 0 .478.229.478.627 0 .24-.12.728-.209 1.096-.11.409-.12.449-.229.907-.16.647-.369 1.444-.966 1.444-.03 0-.27 0-.439-.14a.5.5 0 0 0 .389-.477c0-.26-.21-.32-.339-.32-.249 0-.498.21-.498.539 0 .388.418.618.877.618.478 0 .807-.379.976-.678.2.568.687.678.947.678 1.026 0 1.534-1.335 1.534-1.535 0-.1-.08-.1-.15-.1-.12 0-.13.01-.179.17C4.264-.498 3.766-.11 3.347-.11c-.199 0-.468-.12-.468-.637 0-.24.11-.668.19-1.006.11-.419.259-1.037.338-1.365.14-.518.409-1.066.877-1.066.03 0 .279 0 .438.14Z"/>
        <path id="w" d="M3.557-.259C3.178 1.385 2.44 1.823 1.943 1.823c-.478 0-.618-.378-.618-.428 0-.01.01-.02.08-.03a.503.503 0 0 0 .428-.478c0-.21-.16-.32-.339-.32-.12 0-.508.06-.508.619 0 .518.409.856.957.856 1.036 0 1.942-1.026 2.191-2.012l.977-3.925c.01-.06.03-.11.03-.14 0-.11-.08-.259-.28-.259-.298 0-.368.289-.388.369L3.746-.996c-.07.289-.468.886-1.056.886-.448 0-.538-.438-.538-.767 0-.607.329-1.504.578-2.182.08-.209.13-.348.13-.538 0-.498-.33-.806-.758-.806C1.176-4.403.827-2.93.827-2.87c0 .1.1.1.15.1.129 0 .139-.02.179-.16.08-.309.348-1.255.926-1.255.11 0 .22.03.22.289 0 .239-.1.508-.24.896-.259.698-.518 1.435-.518 1.953C1.544-.18 2.122.11 2.66.11c.458 0 .767-.24.897-.369Z"/>
        <path id="K" d="M6.535-6.017a.2.2 0 0 0-.199-.2h-5.23a.2.2 0 0 0-.2.2v5.23c0 .11.09.2.2.2h5.23a.2.2 0 0 0 .2-.2v-5.23Zm-5.23.199h4.832v4.832H1.305v-4.832Z"/>
        <path id="A" d="M7.273-3.268c.04-.03.06-.08.06-.14 0-.049-.02-.099-.06-.139L4.085-6.735c-.04-.04-.09-.06-.14-.06s-.11.02-.14.06L.609-3.547c-.03.04-.05.09-.05.14 0 .06.02.11.05.14L3.806-.07c.03.04.09.06.14.06s.099-.02.139-.06l3.188-3.198Zm-6.237-.14 2.91-2.908 2.908 2.909L3.945-.498l-2.909-2.91Z"/>
        <path id="y" d="M2.929-3.452c-.055-.09-.09-.115-.2-.115-.104 0-.144.025-.198.115L.478-.13c-.035.055-.035.06-.035.075C.443 0 .488 0 .568 0h4.324c.08 0 .124 0 .124-.055 0-.015 0-.02-.035-.075L2.93-3.452Zm-.379.388 1.61 2.61H.935l1.614-2.61Z"/>
        <path id="c" d="M1.166-.717c0 .408-.05.468-.718.468V0h2.8c1.405 0 2.46-1.156 2.46-2.52 0-1.375-1.026-2.6-2.46-2.6h-2.8v.248c.668 0 .718.06.718.469v3.686Zm1.086.468c-.35 0-.399-.03-.399-.428v-3.766c0-.399.05-.429.399-.429h.767c.856 0 1.285.469 1.424.648.22.279.439.697.439 1.703 0 .817-.15 1.236-.359 1.555-.16.219-.588.717-1.504.717h-.767Z"/>
        <path id="f" d="M4.862-5.09H.428v.248c.668 0 .718.06.718.468v3.657c0 .408-.05.468-.718.468V0h4.553l.29-1.933h-.25C4.851-.727 4.613-.249 3.337-.249H2.262c-.35 0-.399-.03-.399-.428v-1.844h.697c.738 0 .857.2.857.867h.25v-1.982h-.25c0 .667-.12.866-.857.866h-.697v-1.643c0-.399.05-.429.399-.429h1.016c1.155 0 1.414.349 1.524 1.435h.25l-.19-1.684Z"/>
        <path id="e" d="M4.712-1.933h-.249c-.08.797-.18 1.684-1.574 1.684h-.627c-.35 0-.399-.03-.399-.428v-3.697c0-.498.15-.498.897-.498v-.249c-.29.01-.927.03-1.226.03-.249 0-.747-.02-1.106-.03v.25c.668 0 .718.059.718.468v3.686c0 .408-.05.468-.718.468V0h4.095l.19-1.933Z"/>
        <path id="a" d="m5.609-4.832.01.01v4.105c0 .408-.05.468-.717.468V0c.199-.01.687-.03 1.036-.03s.707.02 1.036.03v-.25c-.668 0-.717-.059-.717-.467v-3.686c0-.409.05-.469.717-.469v-.249H5.768c-.229 0-.259 0-.338.19L3.726-.748 2.012-4.941c-.07-.18-.13-.18-.338-.18H.468v.25c.668 0 .718.059.718.468v3.397c0 .229 0 .757-.718.757V0c.21-.01.658-.03.857-.03.15 0 .608.01.857.03v-.25c-.717 0-.717-.527-.717-.756v-3.746l.01-.01L3.336-.18c.04.09.09.179.19.179s.15-.09.19-.18l1.892-4.652Z"/>
        <path id="b" d="M5.828-2.54c0-1.485-1.185-2.72-2.66-2.72-1.484 0-2.66 1.235-2.66 2.72 0 1.504 1.206 2.68 2.66 2.68s2.66-1.176 2.66-2.68ZM3.168-.12c-.707 0-1.803-.567-1.803-2.53 0-1.873 1.136-2.361 1.803-2.361.678 0 1.803.498 1.803 2.36C4.971-.686 3.875-.12 3.168-.12Z"/>
        <path id="d" d="M1.863-4.403c0-.409.05-.469.717-.469v-.249c-.289.01-.856.03-1.076.03S.727-5.11.428-5.12v.25c.678 0 .718.059.718.487v2.162c0 .25 0 .618.02.748.09.807.886 1.613 1.992 1.613 1.156 0 1.793-1.016 1.803-1.743v-2.65c.01-.399.27-.618.718-.618v-.249a12.023 12.023 0 0 1-1.684 0v.25c.717 0 .717.527.717.756v2.342c0 1.155-.856 1.663-1.534 1.663-.299 0-1.315-.12-1.315-1.614v-2.68Z"/>
    </defs>
    <path d="M57.061 60.62h.399v5.978h-.399zM57.46 60.62h130.848v.399H57.46z"/>
    <use x="192.293" y="62.765" xlink:href="#a"/>
    <use x="199.732" y="62.765" xlink:href="#b"/>
    <use x="206.063" y="62.765" xlink:href="#c"/>
    <use x="212.285" y="62.765" xlink:href="#d"/>
    <use x="218.395" y="62.765" xlink:href="#e"/>
    <use x="223.509" y="62.765" xlink:href="#f"/>
    <use x="232.83" y="62.765" xlink:href="#g"/>
    <use x="236.139" y="62.765" xlink:href="#h"/>
    <use x="239.195" y="62.765" xlink:href="#i"/>
    <use x="243.777" y="62.765" xlink:href="#g"/>
    <use x="247.087" y="62.765" xlink:href="#j"/>
    <use x="252.179" y="62.765" xlink:href="#i"/>
    <use x="256.762" y="62.765" xlink:href="#g"/>
    <use x="260.072" y="62.765" xlink:href="#k"/>
    <use x="264.654" y="62.765" xlink:href="#l"/>
    <use x="269.237" y="62.765" xlink:href="#m"/>
    <use x="273.859" y="62.765" xlink:href="#n"/>
    <use x="280.478" y="62.765" xlink:href="#h"/>
    <use x="283.534" y="62.765" xlink:href="#o"/>
    <path d="M293.884 60.62h130.848v.399H293.884zM424.732 60.62h.399v5.978h-.399z"/>
    <use x="61.768" y="90.66" xlink:href="#p"/>
    <use x="69.174" y="90.66" xlink:href="#q"/>
    <use x="78.107" y="90.66" xlink:href="#r"/>
    <use x="83.454" y="90.66" xlink:href="#s"/>
    <use x="87.527" y="90.66" xlink:href="#g"/>
    <use x="90.837" y="90.66" xlink:href="#t"/>
    <use x="97.595" y="90.66" xlink:href="#u"/>
    <use x="102.178" y="90.66" xlink:href="#l"/>
    <use x="106.761" y="90.66" xlink:href="#o"/>
    <use x="112.362" y="90.66" xlink:href="#g"/>
    <use x="115.671" y="90.66" xlink:href="#r"/>
    <use x="121.018" y="90.66" xlink:href="#j"/>
    <use x="126.11" y="90.66" xlink:href="#v"/>
    <use x="129.165" y="90.66" xlink:href="#v"/>
    <use x="131.711" y="90.66" xlink:href="#w"/>
    <use x="136.549" y="90.66" xlink:href="#x"/>
    <use x="146.5" y="90.66" xlink:href="#h"/>
    <use x="149.555" y="90.66" xlink:href="#o"/>
    <use x="162.597" y="85.012" xlink:href="#y"/>
    <use x="161.455" y="90.66" xlink:href="#z"/>
    <use x="174.739" y="90.66" xlink:href="#A"/>
    <use x="182.626" y="90.66" xlink:href="#x"/>
    <use x="192.578" y="90.66" xlink:href="#k"/>
    <use x="197.67" y="90.66" xlink:href="#o"/>
    <use x="204.035" y="90.66" xlink:href="#B"/>
    <use x="207.909" y="90.66" xlink:href="#C"/>
    <use x="212.891" y="90.66" xlink:href="#D"/>
    <use x="219.533" y="90.66" xlink:href="#E"/>
    <use x="224.514" y="90.66" xlink:href="#F"/>
    <use x="61.768" y="110.585" xlink:href="#G"/>
    <use x="67.37" y="110.585" xlink:href="#H"/>
    <use x="71.952" y="110.585" xlink:href="#l"/>
    <use x="76.026" y="110.585" xlink:href="#i"/>
    <use x="87.848" y="104.938" xlink:href="#y"/>
    <use x="86.707" y="110.585" xlink:href="#z"/>
    <use x="99.99" y="110.585" xlink:href="#I"/>
    <use x="103.831" y="110.585" xlink:href="#o"/>
    <use x="109.432" y="110.585" xlink:href="#h"/>
    <use x="112.487" y="110.585" xlink:href="#g"/>
    <use x="118.956" y="110.585" xlink:href="#J"/>
    <use x="127.812" y="110.585" xlink:href="#K"/>
    <use x="135.256" y="110.585" xlink:href="#L"/>
    <use x="138.024" y="110.585" xlink:href="#M"/>
    <use x="145.429" y="110.585" xlink:href="#l"/>
    <use x="150.012" y="110.585" xlink:href="#m"/>
    <use x="154.633" y="110.585" xlink:href="#g"/>
    <use x="158.888" y="110.585" xlink:href="#N"/>
    <use x="161.656" y="112.08" xlink:href="#O"/>
    <use x="165.453" y="112.08" xlink:href="#P"/>
    <use x="169.659" y="112.08" xlink:href="#Q"/>
    <use x="173.149" y="112.08" xlink:href="#R"/>
    <use x="179.794" y="110.585" xlink:href="#J"/>
    <use x="188.65" y="110.585" xlink:href="#S"/>
    <use x="198.889" y="110.585" xlink:href="#T"/>
    <use x="205.392" y="112.08" xlink:href="#O"/>
    <use x="209.189" y="112.08" xlink:href="#P"/>
    <use x="213.396" y="112.08" xlink:href="#Q"/>
    <use x="216.886" y="112.08" xlink:href="#R"/>
    <use x="221.317" y="110.585" xlink:href="#B"/>
    <use x="225.191" y="110.585" xlink:href="#M"/>
    <use x="232.597" y="110.585" xlink:href="#l"/>
    <use x="237.18" y="110.585" xlink:href="#m"/>
    <use x="241.801" y="110.585" xlink:href="#g"/>
    <use x="246.056" y="110.585" xlink:href="#F"/>
    <path d="M57.061 130.757h.399v5.978h-.399zM57.46 136.336h367.273v.399H57.46z"/>
    <path d="M424.732 130.757h.399v5.978h-.399z"/>
</svg>
